
      <svg data-logo="logo" xmlns="http://www.w3.org/2000/svg" viewBox="0 0 118 43">
        <g id="logogram" transform="translate(0, 1) rotate(0) "><path d="M12.2501 38.5041L8.20328 31.4947L14.1422 21.2365L17.9161 27.7736L40.1946 27.7616L33.8729 38.6009L12.2501 38.5041Z" fill="#FFAD64"/><path d="M44.1727 20.8016L40.1259 27.8108L28.2725 27.7968L32.0468 21.2598L20.8972 1.97211L33.4451 2.02716L44.1727 20.8016Z" fill="#ADD4D3"/><path d="M12.8737 1.93472H20.9674L26.8819 12.2073L19.3334 12.2069L8.2047 31.5066L1.97841 20.6124L12.8737 1.93472Z" fill="#FB8351"/><path fill-rule="evenodd" clip-rule="evenodd" d="M21.9542 0.311858L21.93 0.269989H11.9176L0.0561523 20.604L8.19841 34.8506L8.2084 34.8333L11.2865 40.1647L34.8269 40.27L43.0937 26.0952H43.0387L46.0926 20.8058L34.4136 0.366518L21.9542 0.311858ZM29.6993 13.8721H29.7618L23.8761 3.65005L32.4765 3.68776L42.2528 20.7972L39.1928 26.0974L31.1736 26.1017L33.9696 21.2592L29.6993 13.8721ZM19.9152 3.59966L23.9284 10.5423L18.3719 10.5421L8.85894 27.0394L8.21004 28.1604L3.90107 20.6209L13.8301 3.59966H19.9152ZM16.0567 21.2226L20.2953 13.8719L25.8534 13.8721L30.1241 21.2602L27.3276 26.1038L18.8773 26.1084L16.0567 21.2226ZM10.1296 31.5014L11.7422 28.705L14.1402 24.5628L16.9553 29.4391L25.4043 29.4345L25.3906 29.4581L37.2697 29.4722L32.9192 36.9318L13.2138 36.8436L10.1296 31.5014Z" fill="#333237"/></g>
        <g id="logotype" transform="translate(53, 8.5)"><path fill="#111111" d="M25.38 26L8.31 26L8.31 0.54L25.35 0.54L25.35 4.86L13.52 4.86L13.52 11.01L24.44 11.01L24.44 15.27L13.52 15.27L13.52 21.68L25.38 21.68L25.38 26ZM38.04 26L27.29 26L27.29 0.54L37.39 0.54Q40.19 0.54 42.07 1.38Q43.94 2.23 44.87 3.70Q45.80 5.17 45.80 7.08L45.80 7.08Q45.80 8.59 45.20 9.70Q44.60 10.82 43.57 11.53Q42.54 12.24 41.22 12.55L41.22 12.55L41.22 12.81Q42.66 12.86 43.93 13.62Q45.20 14.38 46.00 15.74Q46.79 17.10 46.79 18.99L46.79 18.99Q46.79 20.99 45.80 22.58Q44.81 24.17 42.87 25.09Q40.93 26 38.04 26L38.04 26ZM32.50 14.81L32.50 21.71L37.02 21.71Q39.31 21.71 40.37 20.82Q41.43 19.93 41.43 18.50L41.43 18.50Q41.43 17.40 40.90 16.57Q40.38 15.75 39.43 15.28Q38.47 14.81 37.15 14.81L37.15 14.81L32.50 14.81ZM32.50 4.79L32.50 11.23L36.62 11.23Q37.73 11.23 38.62 10.83Q39.51 10.43 40.02 9.69Q40.52 8.94 40.52 7.92L40.52 7.92Q40.52 6.53 39.54 5.66Q38.55 4.79 36.73 4.79L36.73 4.79L32.50 4.79ZM55.56 26.34L55.56 26.34Q51.59 26.34 49.31 24.27Q47.03 22.19 47.03 18.34L47.03 18.34L47.03 16.86L52.24 16.86L52.24 18.43Q52.24 20.26 53.14 21.20Q54.04 22.14 55.56 22.14L55.56 22.14Q57.08 22.14 57.97 21.20Q58.85 20.26 58.85 18.41L58.85 18.41L58.85 0.54L64.02 0.54L64.02 18.33Q64.02 22.19 61.76 24.27Q59.50 26.34 55.56 26.34Z"/></g>
        
      </svg>
    